<svg width="36" height="36" viewBox="0 0 36 36" fill="none" xmlns="http://www.w3.org/2000/svg">
<path d="M36 36H0V0H36V36ZM32.6846 19.8213C32.6657 19.8545 31.2351 22.3722 29.7646 23.333C28.0646 24.4444 26.2328 24.3786 24.6338 23.5703C23.035 22.762 21.8128 21.4197 21.5947 20.9658C21.3764 20.5119 20.6676 19.7637 20.2139 20.2158C19.7604 20.6697 20.5107 21.3802 20.9629 21.5967C21.4168 21.8132 22.7591 23.0368 23.5674 24.6357C24.3757 26.2347 24.4415 28.065 23.3301 29.7666C22.3697 31.2362 19.8542 32.6662 19.8184 32.6865C21.9496 33.1996 24.0006 32.6079 25.2627 31.0684C26.1335 30.0083 26.3113 28.2439 26.3369 27.6152C26.7234 28.5438 27.2963 29.9281 28.6162 31.6201C30.2937 33.7707 32.4188 33.766 33.0908 33.0957C33.7612 32.4253 33.7659 30.2986 31.6152 28.6211L31.6182 28.6191C29.925 27.2996 28.5428 26.7273 27.6143 26.3408C28.2432 26.3151 30.0065 26.1346 31.0664 25.2656C32.606 24.0035 33.1978 21.9511 32.6846 19.8213ZM3.31348 19.8193C2.80027 21.9508 3.39201 24.0025 4.93164 25.2646C5.99175 26.1354 7.75611 26.3132 8.38477 26.3389C7.45618 26.7254 6.07187 27.2983 4.37988 28.6182C2.22937 30.2957 2.23393 32.4208 2.9043 33.0928C3.57475 33.7631 5.70144 33.7676 7.37891 31.6172C8.69882 29.9236 9.27169 28.5409 9.6582 27.6123C9.68386 28.241 9.86317 30.0053 10.7324 31.0654C11.9946 32.605 14.0479 33.1968 16.1777 32.6836C16.1777 32.6836 13.6321 31.243 12.665 29.7627L12.668 29.7646C11.5566 28.0647 11.6224 26.2327 12.4307 24.6338C13.2389 23.0351 14.5812 21.813 15.0352 21.5947C15.489 21.3782 16.238 20.6677 15.7842 20.2139C15.3303 19.7605 14.6198 20.5111 14.4033 20.9648C14.1865 21.4189 12.963 22.7612 11.3643 23.5693C9.76706 24.3775 7.93581 24.4431 6.23438 23.332C4.75409 22.365 3.31348 19.8193 3.31348 19.8193ZM17.8086 22.9277C16.3755 22.9277 15.2139 24.0893 15.2139 25.5225C15.2139 26.9555 16.3755 28.1172 17.8086 28.1172C19.2416 28.1171 20.4032 26.9555 20.4033 25.5225C20.4033 24.0894 19.2416 22.9279 17.8086 22.9277ZM25.5225 15.5967C24.0894 15.5967 22.9278 16.7584 22.9277 18.1914C22.9277 19.6245 24.0894 20.7861 25.5225 20.7861C26.9556 20.7861 28.1172 19.6245 28.1172 18.1914C28.1171 16.7583 26.9555 15.5967 25.5225 15.5967ZM10.4775 15.2139C9.04441 15.2139 7.88281 16.3755 7.88281 17.8086C7.88289 19.2417 9.04446 20.4033 10.4775 20.4033C11.9106 20.4033 13.0722 19.2416 13.0723 17.8086C13.0723 16.3755 11.9107 15.2139 10.4775 15.2139ZM18.001 17.2139C17.5661 17.2139 17.2129 17.5661 17.2129 18.001C17.213 18.4358 17.5661 18.7881 18.001 18.7881C18.4358 18.788 18.788 18.4358 18.7881 18.001C18.7881 17.5661 18.4358 17.2139 18.001 17.2139ZM33.0938 2.90625C32.4234 2.23587 30.2967 2.23117 28.6191 4.38184C27.2996 6.07502 26.7273 7.45724 26.3408 8.38574C26.3151 7.75684 26.1348 5.99257 25.2656 4.93262C24.0035 3.39337 21.9508 2.8014 19.8213 3.31445C19.8213 3.31445 22.3658 4.75512 23.333 6.23535C24.4444 7.93536 24.3786 9.76724 23.5703 11.3662C22.762 12.9649 21.4196 14.1872 20.9658 14.4053C20.5119 14.6236 19.7633 15.3324 20.2168 15.7861C20.6705 16.2399 21.3809 15.4894 21.5977 15.0371C21.8142 14.5848 23.0387 13.2409 24.6377 12.4326C26.2366 11.6244 28.0661 11.5586 29.7676 12.6699C31.2411 13.6326 32.6753 16.1584 32.6885 16.1816C33.2015 14.0505 32.6097 11.9994 31.0703 10.7373L31.0664 10.7344C30.0065 9.86372 28.2433 9.68489 27.6143 9.65918C28.5428 9.2727 29.9266 8.70034 31.6182 7.38086C33.7688 5.70335 33.7641 3.57829 33.0938 2.90625ZM7.38184 4.37988C5.70432 2.22955 3.57918 2.23395 2.90723 2.9043C2.23691 3.57468 2.23252 5.70142 4.38281 7.37891C6.07637 8.69879 7.45911 9.27169 8.3877 9.6582C7.75895 9.68388 5.99463 9.86321 4.93457 10.7324C3.39495 11.9946 2.8032 14.0479 3.31641 16.1777C3.31641 16.1777 4.75702 13.6321 6.2373 12.665C7.9371 11.5539 9.76839 11.6197 11.3672 12.4277C12.9646 13.236 14.1891 14.5784 14.4072 15.0322C14.6237 15.4861 15.3342 16.2351 15.7881 15.7812C16.2412 15.3275 15.4913 14.617 15.0391 14.4004L15.0352 14.4033C14.5809 14.1863 13.2387 12.9628 12.4307 11.3643C11.6226 9.76548 11.5569 7.93577 12.668 6.23438C13.635 4.75409 16.1807 3.31348 16.1807 3.31348C14.0492 2.80027 11.9975 3.39201 10.7354 4.93164C9.86454 5.99174 9.68679 7.75609 9.66113 8.38477C9.27462 7.45618 8.70174 6.07186 7.38184 4.37988ZM18.1914 7.88281C16.7584 7.88296 15.5967 9.0445 15.5967 10.4775C15.5968 11.9105 16.7585 13.0721 18.1914 13.0723C19.6245 13.0723 20.786 11.9106 20.7861 10.4775C20.7861 9.04441 19.6245 7.88281 18.1914 7.88281Z" fill="#E07400"/>
</svg>
