<svg width="36" height="36" viewBox="0 0 36 36" fill="none" xmlns="http://www.w3.org/2000/svg">
<g clip-path="url(#clip0_7381_25750)">
<path d="M18.0033 27.0075C22.9766 27.0075 27.0083 22.9759 27.0083 18.0028C27.0083 13.0296 22.9766 8.99805 18.0033 8.99805C13.03 8.99805 8.99835 13.0296 8.99835 18.0028C8.99835 22.9759 13.03 27.0075 18.0033 27.0075Z" fill="#E07400"/>
<path d="M22.4992 4.5025L18.0034 0.00683594L13.5076 4.5025L18.0034 8.99816L22.4992 4.5025Z" fill="#E07400"/>
<path d="M22.499 31.5037L18.0032 27.0081L13.5074 31.5037L18.0032 35.9994L22.499 31.5037Z" fill="#E07400"/>
<path d="M0.000528632 9.00483L4.49631 13.5005L13.4945 4.5025L8.99875 0.00683821L0.000528632 9.00483Z" fill="#E07400"/>
<path d="M22.5007 31.5041L26.9964 35.9998L35.9947 27.0018L31.4989 22.5061L22.5007 31.5041Z" fill="#E07400"/>
<path d="M8.99816 18.003L4.50238 13.5073L0.00660163 18.003L4.50238 22.4986L8.99816 18.003Z" fill="#E07400"/>
<path d="M36 18.0032L31.5042 13.5076L27.0085 18.0032L31.5042 22.4989L36 18.0032Z" fill="#E07400"/>
<path d="M36.0005 8.99726L27.0023 -0.000732422L22.5065 4.49493L31.5047 13.4929L36.0005 8.99726Z" fill="#E07400"/>
<path d="M13.5064 31.4919L4.50818 22.4939L0.0124003 26.9896L9.01063 35.9875L13.5064 31.4919Z" fill="#E07400"/>
</g>
<defs>
<clipPath id="clip0_7381_25750">
<rect width="36" height="36" fill="white"/>
</clipPath>
</defs>
</svg>
