<svg width="36" height="36" viewBox="0 0 36 36" fill="none" xmlns="http://www.w3.org/2000/svg">
<g clip-path="url(#clip0_7381_19341)">
<path d="M0 0V36H36V0H0ZM33.1806 2.81944C33.7483 3.38718 33.4981 4.83058 31.7724 6.4969C30.0468 8.16483 23.335 12.665 23.335 12.665C23.335 12.665 27.8352 5.95322 29.5031 4.22756C31.171 2.50189 32.6128 2.2517 33.1806 2.81944ZM31.6393 12.7645C31.4132 13.4814 29.4999 13.3434 28.6964 13.1766C28.0725 13.0467 25.2082 12.6971 23.4681 13.6674C23.4681 13.6674 25.9652 11.5151 29.0685 11.4365C30.3098 11.4045 31.9232 11.8631 31.6377 12.7661L31.6393 12.7645ZM22.8234 7.3036C22.6566 6.50011 22.5186 4.58841 23.2355 4.36067C24.1385 4.0752 24.5955 5.6886 24.5651 6.92992C24.4849 10.0348 22.3342 12.5303 22.3342 12.5303C23.3029 10.7918 22.9549 7.92587 22.825 7.302L22.8234 7.3036ZM19.6703 2.48425C20.6951 2.2934 21.5211 4.02388 21.6686 5.78643C21.7568 6.84813 21.6318 8.47597 21.5099 9.71087C21.3559 11.2633 20.7096 13.2616 20.7096 13.2616C20.5219 11.7012 20.2573 9.3404 19.8965 7.62436C19.4939 5.71105 18.6167 5.19303 18.6102 3.86671C18.607 3.26369 19.0304 2.60293 19.6703 2.48425ZM19.4009 19.4009C18.6279 20.1739 17.3737 20.1739 16.5991 19.4009C15.8245 18.6279 15.8261 17.3737 16.5991 16.5991C17.3721 15.8261 18.6263 15.8261 19.4009 16.5991C20.1739 17.3721 20.1739 18.6263 19.4009 19.4009ZM18.931 10.9313C19.0721 11.7413 19.1748 13.2809 18.8091 14.0507C18.445 14.8205 17.9992 15.1044 17.9992 15.1044C17.9992 15.1044 17.5533 14.8205 17.1893 14.0507C16.8252 13.2809 16.9263 11.7413 17.0674 10.9313C17.2085 10.1214 17.9992 8.35889 17.9992 8.35889C17.9992 8.35889 18.7899 10.1214 18.931 10.9313ZM14.3314 5.78643C14.4773 4.02388 15.3049 2.2934 16.3297 2.48425C16.9696 2.60293 17.393 3.26369 17.3898 3.86671C17.3833 5.19303 16.5077 5.71266 16.1035 7.62436C15.7411 9.3404 15.4765 11.7012 15.2904 13.2616C15.2904 13.2616 14.6441 11.2633 14.4901 9.71087C14.3682 8.47597 14.2448 6.84813 14.3314 5.78643ZM12.7645 4.36067C13.4814 4.5868 13.3434 6.50011 13.1766 7.3036C13.0467 7.92747 12.6971 10.7918 13.6674 12.5319C13.6674 12.5319 11.5151 10.0348 11.4365 6.93153C11.4045 5.6902 11.8631 4.0768 12.7661 4.36228L12.7645 4.36067ZM2.81944 2.81944C3.38718 2.2517 4.83058 2.50189 6.4969 4.22756C8.16323 5.95322 12.665 12.665 12.665 12.665C12.665 12.665 5.95322 8.16483 4.22756 6.4969C2.50189 4.82897 2.2517 3.38718 2.81944 2.81944ZM12.5319 13.6674C10.7934 12.6987 7.92747 13.0467 7.3036 13.1766C6.50011 13.3434 4.58841 13.4814 4.36067 12.7645C4.0752 11.8615 5.6886 11.4029 6.92992 11.4349C10.0348 11.5151 12.5303 13.6658 12.5303 13.6658L12.5319 13.6674ZM5.78643 14.3314C6.84813 14.2431 8.47597 14.3682 9.71087 14.4901C11.2633 14.6441 13.2616 15.2904 13.2616 15.2904C11.7012 15.4781 9.3404 15.7427 7.62436 16.1035C5.71105 16.5061 5.19303 17.3833 3.86671 17.3898C3.26369 17.393 2.60293 16.9696 2.48265 16.3297C2.2918 15.3049 4.02227 14.4789 5.78483 14.3314H5.78643ZM2.48425 19.6703C2.60293 19.0304 3.26369 18.607 3.86831 18.6102C5.19464 18.6167 5.71426 19.4923 7.62596 19.8965C9.342 20.2589 11.7028 20.5235 13.2632 20.7096C13.2632 20.7096 11.2649 21.3559 9.71248 21.5099C8.47757 21.6318 6.84973 21.7568 5.78803 21.6686C4.02548 21.5227 2.29501 20.6951 2.48586 19.6703H2.48425ZM12.5319 22.3326C12.5319 22.3326 10.0348 24.4849 6.93153 24.5635C5.6902 24.5955 4.0768 24.1369 4.36228 23.2339C4.58841 22.517 6.50171 22.655 7.30521 22.8218C7.92908 22.9517 10.7934 23.3013 12.5335 22.331L12.5319 22.3326ZM2.81944 33.1806C2.2517 32.6128 2.50189 31.1694 4.22756 29.5031C5.95322 27.8352 12.665 23.335 12.665 23.335C12.665 23.335 8.16483 30.0468 6.4969 31.7724C4.82897 33.4981 3.38718 33.7483 2.81944 33.1806ZM13.1766 28.6964C13.3434 29.4999 13.4814 31.4116 12.7645 31.6393C11.8615 31.9248 11.4045 30.3114 11.4349 29.0701C11.5151 25.9652 13.6658 23.4697 13.6658 23.4697C12.6971 25.2082 13.0451 28.0741 13.175 28.698L13.1766 28.6964ZM10.9313 18.931C10.1214 18.7899 8.35889 17.9992 8.35889 17.9992C8.35889 17.9992 10.1214 17.2085 10.9313 17.0674C11.7413 16.9263 13.2809 16.8236 14.0507 17.1893C14.8205 17.5533 15.1044 17.9992 15.1044 17.9992C15.1044 17.9992 14.8205 18.445 14.0507 18.8091C13.2809 19.1732 11.7413 19.0721 10.9313 18.931ZM16.3297 33.5157C15.3049 33.7066 14.4789 31.9761 14.3314 30.2136C14.2431 29.1519 14.3682 27.524 14.4901 26.2891C14.6441 24.7367 15.2904 22.7384 15.2904 22.7384C15.4781 24.2988 15.7427 26.6596 16.1035 28.3756C16.5061 30.2889 17.3833 30.807 17.3898 32.1333C17.393 32.7363 16.9696 33.3971 16.3297 33.5157ZM17.069 25.0686C16.9279 24.2587 16.8252 22.7191 17.1909 21.9493C17.555 21.1795 18.0008 20.8956 18.0008 20.8956C18.0008 20.8956 18.4467 21.1795 18.8107 21.9493C19.1748 22.7191 19.0737 24.2587 18.9326 25.0686C18.7915 25.8786 18.0008 27.6411 18.0008 27.6411C18.0008 27.6411 17.2101 25.8786 17.069 25.0686ZM21.6686 30.2136C21.5227 31.9761 20.6951 33.7066 19.6703 33.5157C19.0288 33.3971 18.607 32.7363 18.6102 32.1333C18.6167 30.807 19.4923 30.2873 19.8965 28.3756C20.2589 26.6596 20.5235 24.2988 20.7096 22.7384C20.7096 22.7384 21.3559 24.7367 21.5099 26.2891C21.6318 27.524 21.7568 29.1519 21.6686 30.2136ZM20.8972 18.0008C20.8972 18.0008 21.1811 17.555 21.9509 17.1909C22.7207 16.8268 24.2603 16.9279 25.0703 17.069C25.8802 17.2101 27.6427 18.0008 27.6427 18.0008C27.6427 18.0008 25.8802 18.7915 25.0703 18.9326C24.2603 19.0737 22.7207 19.1764 21.9509 18.8107C21.1811 18.445 20.8972 18.0008 20.8972 18.0008ZM23.2355 31.6393C22.5186 31.4132 22.6566 29.4999 22.8234 28.6964C22.9533 28.0725 23.3029 25.2082 22.3326 23.4681C22.3326 23.4681 24.4849 25.9652 24.5635 29.0685C24.5955 30.3098 24.1369 31.9232 23.2339 31.6377L23.2355 31.6393ZM33.1806 33.1806C32.6128 33.7483 31.1694 33.4981 29.5031 31.7724C27.8352 30.0468 23.335 23.335 23.335 23.335C23.335 23.335 30.0468 27.8352 31.7724 29.5031C33.4981 31.171 33.7483 32.6128 33.1806 33.1806ZM23.4681 22.3326C25.2066 23.3013 28.0725 22.9533 28.6964 22.8234C29.4999 22.6566 31.4116 22.5186 31.6393 23.2355C31.9248 24.1385 30.3114 24.5955 29.0701 24.5651C25.9652 24.4849 23.4697 22.3342 23.4697 22.3342L23.4681 22.3326ZM30.2136 21.6686C29.1519 21.7568 27.524 21.6318 26.2891 21.5099C24.7367 21.3559 22.7384 20.7096 22.7384 20.7096C24.2988 20.5219 26.6596 20.2573 28.3756 19.8965C30.2889 19.4939 30.807 18.6167 32.1333 18.6102C32.7363 18.607 33.3971 19.0304 33.5157 19.6703C33.7066 20.6951 31.9761 21.5211 30.2136 21.6686ZM33.5157 16.3297C33.3971 16.9712 32.7363 17.393 32.1333 17.3898C30.807 17.3833 30.2873 16.5077 28.3756 16.1035C26.6596 15.7411 24.2988 15.4765 22.7384 15.2904C22.7384 15.2904 24.7367 14.6441 26.2891 14.4901C27.524 14.3682 29.1519 14.2431 30.2136 14.3314C31.9761 14.4773 33.7066 15.3049 33.5157 16.3297Z" fill="#E07400"/>
</g>
<defs>
<clipPath id="clip0_7381_19341">
<rect width="36" height="36" fill="white"/>
</clipPath>
</defs>
</svg>
