<svg width="56" height="39" viewBox="0 0 56 39" fill="none" xmlns="http://www.w3.org/2000/svg">
<mask id="path-1-inside-1_6588_15648" fill="white">
<path d="M40 0C48.8366 0 56 7.16344 56 16C56 24.8366 48.8366 32 40 32H33.7637L29.0957 38.2002C28.2928 39.2666 26.7082 39.2666 25.9053 38.2002L21.2373 32H16C7.16344 32 0 24.8366 0 16C0 7.16344 7.16344 3.86555e-07 16 0H40Z"/>
</mask>
<path d="M40 0C48.8366 0 56 7.16344 56 16C56 24.8366 48.8366 32 40 32H33.7637L29.0957 38.2002C28.2928 39.2666 26.7082 39.2666 25.9053 38.2002L21.2373 32H16C7.16344 32 0 24.8366 0 16C0 7.16344 7.16344 3.86555e-07 16 0H40Z" fill="url(#paint0_linear_6588_15648)"/>
<path d="M40 32V33.5V32ZM33.7637 32V30.5H33.0154L32.5653 31.0978L33.7637 32ZM29.0957 38.2002L30.294 39.1024L30.294 39.1024L29.0957 38.2002ZM25.9053 38.2002L24.7069 39.1024L24.7069 39.1024L25.9053 38.2002ZM21.2373 32L22.4356 31.0978L21.9856 30.5H21.2373V32ZM16 0V-1.5V0ZM40 0V1.5C48.0081 1.5 54.5 7.99187 54.5 16H56H57.5C57.5 6.33502 49.665 -1.5 40 -1.5V0ZM56 16H54.5C54.5 24.0081 48.0081 30.5 40 30.5V32V33.5C49.665 33.5 57.5 25.665 57.5 16H56ZM40 32V30.5H33.7637V32V33.5H40V32ZM33.7637 32L32.5653 31.0978L27.8974 37.298L29.0957 38.2002L30.294 39.1024L34.962 32.9022L33.7637 32ZM29.0957 38.2002L27.8974 37.298C27.6945 37.5674 27.3064 37.5674 27.1036 37.298L25.9053 38.2002L24.7069 39.1024C26.11 40.9659 28.891 40.9659 30.294 39.1024L29.0957 38.2002ZM25.9053 38.2002L27.1036 37.298L22.4356 31.0978L21.2373 32L20.039 32.9022L24.7069 39.1024L25.9053 38.2002ZM21.2373 32V30.5H16V32V33.5H21.2373V32ZM16 32V30.5C7.99187 30.5 1.5 24.0081 1.5 16H0H-1.5C-1.5 25.665 6.33502 33.5 16 33.5V32ZM0 16H1.5C1.5 7.99187 7.99187 1.5 16 1.5V0V-1.5C6.33502 -1.5 -1.5 6.33502 -1.5 16H0ZM16 0V1.5H40V0V-1.5H16V0Z" fill="white" mask="url(#path-1-inside-1_6588_15648)"/>
<path d="M17.1 21.274V18.557C17.1 18.141 17.542 17.894 18.023 17.894C18.504 17.894 18.946 18.141 18.946 18.557V20.663C18.946 20.936 18.985 20.975 19.232 20.975H24.315C24.744 20.975 24.9 21.287 24.9 21.716C24.9 22.132 24.744 22.47 24.315 22.47H18.504C17.594 22.47 17.1 22.288 17.1 21.274ZM17.828 10.432C18.335 10.432 18.738 10.64 18.738 11.056V11.81C18.738 13.682 19.505 15.008 21.065 15.684C21.494 15.866 21.624 16.282 21.455 16.711C21.273 17.114 20.922 17.322 20.428 17.127C19.258 16.698 18.374 15.788 17.88 14.657C17.438 15.866 16.463 16.958 15.241 17.439C14.734 17.621 14.383 17.413 14.188 17.049C14.019 16.685 14.071 16.243 14.513 16.035C16.19 15.19 16.931 13.734 16.931 11.888V11.056C16.931 10.64 17.36 10.432 17.828 10.432ZM22.807 18.557V10.614C22.807 10.198 23.21 9.964 23.678 9.964C24.159 9.964 24.536 10.198 24.536 10.614V18.557C24.536 19.064 24.185 19.272 23.678 19.272C23.132 19.272 22.807 19.038 22.807 18.557ZM28.7193 10.601H34.9463C35.8433 10.601 36.1033 10.874 36.1033 11.784V12.59C36.1033 13.695 35.9473 14.93 35.6093 15.827H37.6243C38.0143 15.827 38.1963 16.165 38.1963 16.594C38.1963 17.023 38.0143 17.361 37.6243 17.361H35.0373V21.482C35.0373 21.989 34.6603 22.21 34.1533 22.21C33.6593 22.21 33.2953 21.989 33.2953 21.482V17.361H31.1113V21.482C31.1113 21.989 30.7473 22.21 30.2533 22.21C29.7333 22.21 29.3823 21.989 29.3823 21.482V17.361H26.7563C26.4053 17.361 26.1973 17.023 26.1973 16.594C26.1973 16.165 26.4053 15.827 26.7563 15.827H33.9193C34.1793 15.047 34.3613 14.007 34.3613 12.967V12.434C34.3613 12.148 34.3093 12.083 34.0233 12.083H28.7193C28.3033 12.083 28.0693 11.771 28.0693 11.355C28.0693 10.9 28.3033 10.601 28.7193 10.601ZM41.5347 10.991C41.4437 13.227 41.3917 15.476 41.3137 17.725C41.3007 18.206 40.9107 18.453 40.5207 18.453C40.1437 18.453 39.7667 18.206 39.7537 17.725C39.6887 15.476 39.6107 13.227 39.5587 10.991C39.5587 10.484 40.0007 10.25 40.5337 10.25C41.0537 10.25 41.5347 10.484 41.5347 10.991ZM39.5197 20.741C39.5197 20.208 39.9487 19.753 40.5207 19.753C41.0797 19.753 41.5347 20.208 41.5347 20.741C41.5347 21.3 41.0797 21.768 40.5207 21.768C39.9487 21.768 39.5197 21.3 39.5197 20.741Z" fill="white"/>
<defs>
<linearGradient id="paint0_linear_6588_15648" x1="0" y1="19.5" x2="56" y2="19.5" gradientUnits="userSpaceOnUse">
<stop stop-color="#F07C00"/>
<stop offset="1" stop-color="#E14B00"/>
</linearGradient>
</defs>
</svg>
