<svg width="225" height="225" viewBox="0 0 225 225" fill="none" xmlns="http://www.w3.org/2000/svg">
<path d="M142.264 74.7355L95.7643 28.2353H188.765L142.264 74.7355Z" fill="#292929"/>
<path d="M120.817 112.078L196.764 36.1313V78.7524L142.128 133.389L120.817 112.078Z" fill="#292929"/>
<path d="M112.873 120.023L89.8339 143.062L143.536 196.764H196.764V94.6414L142.128 149.278L112.873 120.023Z" fill="#292929"/>
<path d="M73.8046 142.922L73.9415 143.058L28.2355 188.764V142.413L81.7494 88.8995L104.788 111.938L73.8046 142.922Z" fill="#292929"/>
<path d="M81.8894 151.006L36.1316 196.764H127.647L81.8894 151.006Z" fill="#292929"/>
<path d="M79.8752 28.2353H28.2355V126.524L81.7494 73.0104L112.733 103.994L134.183 82.5431L79.8752 28.2353Z" fill="#292929"/>
<path fill-rule="evenodd" clip-rule="evenodd" d="M220 5H5V220H220V5ZM17.0002 17H208V207.999H17.0002V17Z" fill="#292929"/>
</svg>
