<svg width="36" height="36" viewBox="0 0 36 36" fill="none" xmlns="http://www.w3.org/2000/svg">
<g clip-path="url(#clip0_7380_30802)">
<path d="M0 0V36H36V0H0ZM33.4452 15.353H31.5206V4.47935H18.9647V7.57304H24.5683V11.4301H28.4254V17.0369H33.4452V33.4436H20.647V31.519H31.5206V18.9631H28.4254V24.5683H24.5683V28.4254H18.9615V33.4452H2.55482V20.647H4.47935V31.5206H17.0353V28.4254H11.4317V24.5683H7.57464V18.9615H2.55482V2.55482H15.353V4.47935H4.47935V17.0353H7.57464V11.4301H11.4317V7.57304H17.0385V2.55482H33.4452V15.353Z" fill="#E07400"/>
<path d="M12.4886 18.9614H9.49918V22.6437H13.3563V26.5008H17.0353V23.5081L12.4886 18.9614Z" fill="#E07400"/>
<path d="M18.001 14.2479L14.2496 17.9993L18.001 21.7507L21.7524 17.9993L18.001 14.2479Z" fill="#E07400"/>
<path d="M17.0385 12.4887V9.49927H13.3563V13.3564H9.49918V17.0354H12.4918L17.0385 12.4887Z" fill="#E07400"/>
<path d="M23.5114 17.037H26.5008V13.3564H22.6437V9.49927H18.9647V12.4919L23.5114 17.037Z" fill="#E07400"/>
<path d="M18.9631 23.5113V26.5008H22.6437V22.6437H26.5008V18.9646H23.5082L18.9631 23.5113Z" fill="#E07400"/>
</g>
<defs>
<clipPath id="clip0_7380_30802">
<rect width="36" height="36" fill="white"/>
</clipPath>
</defs>
</svg>
