<svg width="36" height="36" viewBox="0 0 36 36" fill="none" xmlns="http://www.w3.org/2000/svg">
<g clip-path="url(#clip0_7380_30825)">
<path d="M0 0V36H36V0H0ZM16.822 19.2534H5.47369V30.3627H14.2143V24.78H11.1479V27.4775H8.54172V22.1722H16.822V32.9689H2.86755V16.6472H14.2143V5.63728H5.47369V11.2938H8.54012V8.51766H11.1463V13.8999H2.86755V3.03114H16.822V19.255V19.2534ZM33.1324 13.9015H24.8521V8.51927H27.4583V11.2954H30.5247V5.63888H21.7841V16.6488H33.1308V32.9705H19.1764V22.1738H27.4567V27.4791H24.8505V24.7816H21.7841V30.3643H30.5247V19.255H19.178V3.03114H33.1324V13.9015Z" fill="#E07400"/>
</g>
<defs>
<clipPath id="clip0_7380_30825">
<rect width="36" height="36" fill="white"/>
</clipPath>
</defs>
</svg>
