<svg width="36" height="36" viewBox="0 0 36 36" fill="none" xmlns="http://www.w3.org/2000/svg">
<g clip-path="url(#clip0_7380_30774)">
<path d="M24.7736 15.8646L21.4217 19.2149L16.7851 14.5783L20.1354 11.2264L17.9286 9.02124L9.02126 17.9286L11.2264 20.1354L14.5783 16.7851L19.2149 21.4217L15.8646 24.7735L18.0714 26.9787L26.9788 18.0714L24.7736 15.8646Z" fill="#E07400"/>
<path d="M16.5462 21.6606L14.3394 19.4538L11.1446 22.6485L7.79435 19.2966L5.58755 21.5034L8.93945 24.8553L5.74473 28.05L7.94992 30.2552L11.1446 27.0605L14.4965 30.4124L16.7033 28.2056L13.3514 24.8553L16.5462 21.6606Z" fill="#E07400"/>
<path d="M19.4538 14.3395L21.6606 16.5463L24.8554 13.3515L28.2056 16.7034L30.4124 14.4966L27.0605 11.1447L30.2553 7.95001L28.0501 5.74482L24.8554 8.93954L21.5035 5.58765L19.2967 7.79444L22.6486 11.1447L19.4538 14.3395Z" fill="#E07400"/>
<path d="M16.6408 7.73181L14.434 5.52661L11.0837 8.8769L7.88737 5.68057L5.68057 7.88737L8.8769 11.0837L5.52661 14.434L7.73181 16.6408L16.6408 7.73181Z" fill="#E07400"/>
<path d="M30.4734 21.5659L28.2682 19.3591L19.3592 28.2681L21.566 30.4733L24.9163 27.123L28.1126 30.3193L30.3194 28.1125L27.1231 24.9162L30.4734 21.5659Z" fill="#E07400"/>
<path d="M0 0V36H36V0H0ZM34.2262 26.6997C33.4933 28.0549 31.9665 28.2393 31.9665 28.2393C33.5238 29.2064 34.5053 31.8061 33.1549 33.1565C31.8045 34.5069 29.2032 33.5254 28.2377 31.9665C28.2377 31.9665 28.0517 33.4933 26.6981 34.2262C25.3429 34.9591 23.7247 33.6489 23.7247 33.6489C23.7247 33.6489 24.9532 33.5093 25.4985 32.3434C26.0454 31.1742 25.6091 30.0837 25.2515 29.7581L21.7633 33.2463L17.9992 29.4822L14.2351 33.2463L10.7469 29.7581C10.3893 30.0853 9.95304 31.1742 10.4999 32.3434C11.0452 33.5109 12.2737 33.6489 12.2737 33.6489C12.2737 33.6489 10.6539 34.9591 9.30031 34.2262C7.94512 33.4933 7.76068 31.9665 7.76068 31.9665C6.7936 33.5238 4.19388 34.5053 2.8435 33.1549C1.49312 31.8045 2.47463 29.2032 4.0319 28.2377C4.0319 28.2377 2.5051 28.0517 1.77217 26.6981C1.03925 25.3429 2.34953 23.7247 2.34953 23.7247C2.34953 23.7247 2.48906 24.9532 3.65501 25.4985C4.82416 26.0454 5.91473 25.6091 6.2403 25.2515L2.75208 21.7633L6.51615 17.9992L2.75208 14.2351L6.2403 10.7469C5.91313 10.3893 4.82416 9.95304 3.65501 10.4999C2.48746 11.0452 2.34953 12.2737 2.34953 12.2737C2.34953 12.2737 1.03925 10.6539 1.77217 9.30031C2.5051 7.94512 4.0319 7.76068 4.0319 7.76068C2.47463 6.7936 1.49312 4.19388 2.8435 2.8435C4.19388 1.49312 6.79521 2.47463 7.76068 4.0319C7.76068 4.0319 7.94672 2.5051 9.30031 1.77217C10.6555 1.03925 12.2737 2.34953 12.2737 2.34953C12.2737 2.34953 11.0452 2.48906 10.4999 3.65501C9.95304 4.82416 10.3893 5.91473 10.7469 6.2403L14.2351 2.75208L17.9992 6.51615L21.7633 2.75208L25.2515 6.2403C25.6091 5.91313 26.0454 4.82416 25.4985 3.65501C24.9532 2.48746 23.7247 2.34953 23.7247 2.34953C23.7247 2.34953 25.3445 1.03925 26.6981 1.77217C28.0533 2.5051 28.2377 4.0319 28.2377 4.0319C29.2048 2.47463 31.8045 1.49312 33.1549 2.8435C34.5053 4.19388 33.5238 6.79521 31.9649 7.76068C31.9649 7.76068 33.4917 7.94672 34.2246 9.30031C34.9575 10.6539 33.6473 12.2737 33.6473 12.2737C33.6473 12.2737 33.5077 11.0452 32.3418 10.4999C31.1726 9.95304 30.0821 10.3893 29.7565 10.7469L33.2447 14.2351L29.4806 17.9992L33.2447 21.7633L29.7565 25.2515C30.0837 25.6091 31.1726 26.0454 32.3418 25.4985C33.5093 24.9532 33.6473 23.7247 33.6473 23.7247C33.6473 23.7247 34.9575 25.3445 34.2246 26.6981L34.2262 26.6997Z" fill="#E07400"/>
</g>
<defs>
<clipPath id="clip0_7380_30774">
<rect width="36" height="36" fill="white"/>
</clipPath>
</defs>
</svg>
