<svg width="32" height="33" viewBox="0 0 32 33" fill="none" xmlns="http://www.w3.org/2000/svg">
<path fill-rule="evenodd" clip-rule="evenodd" d="M4 8.50049V24.5005C4 25.0528 4.44772 25.5005 5 25.5005H11.2V24.5005H5V8.50049H11.2V7.50049H5C4.44772 7.50049 4 7.9482 4 8.50049Z" fill="white"/>
<path fill-rule="evenodd" clip-rule="evenodd" d="M11.8 29.0005C11.4686 29.0005 11.2 28.7319 11.2 28.4005V4.60049C11.2 4.26912 11.4686 4.00049 11.8 4.00049C12.1314 4.00049 12.4 4.26912 12.4 4.60049V28.4005C12.4 28.7319 12.1314 29.0005 11.8 29.0005Z" fill="white"/>
<path fill-rule="evenodd" clip-rule="evenodd" d="M19.6 8.50049H12.4V7.50049H19.6V8.50049ZM19.6 24.5005H12.4V25.5005H19.6V24.5005Z" fill="white"/>
<path fill-rule="evenodd" clip-rule="evenodd" d="M20.2 29.0005C19.8686 29.0005 19.6 28.7319 19.6 28.4005V4.60049C19.6 4.26912 19.8686 4.00049 20.2 4.00049C20.5314 4.00049 20.8 4.26912 20.8 4.60049V28.4005C20.8 28.7319 20.5314 29.0005 20.2 29.0005Z" fill="white"/>
<path fill-rule="evenodd" clip-rule="evenodd" d="M28 8.50049C28 7.9482 27.5523 7.50049 27 7.50049H20.8V8.50049H27V24.5005H20.8V25.5005H27C27.5523 25.5005 28 25.0528 28 24.5005V8.50049Z" fill="white"/>
</svg>
