<svg width="32" height="33" viewBox="0 0 32 33" fill="none" xmlns="http://www.w3.org/2000/svg">
<path d="M27.5088 9.89844V23.0802H26.1979V11.2457H26.1251L23.0117 13.3031V11.974L26.1615 9.89844H27.5088Z" fill="white"/>
<path d="M13.9142 23.0806V21.6241L18.4841 17.0177C19.9225 15.5066 20.6507 14.6691 20.6507 13.522C20.6507 12.2293 19.5947 11.3918 18.211 11.3918C16.7545 11.3918 15.8077 12.3204 15.8077 13.7223H13.9142C13.896 11.319 15.7349 9.7168 18.2474 9.7168C20.7964 9.7168 22.5442 11.319 22.5625 13.4674C22.5442 14.9422 21.8524 16.1074 19.3763 18.5471L16.6998 21.2599V21.3692H22.7809V23.0806H13.9142Z" fill="white"/>
<path d="M8.81415 23.2627C5.91926 23.2627 3.84368 21.6605 3.78906 19.3664H6.5565C6.61112 20.3496 7.55788 21.005 8.83236 21.005C10.1433 21.005 11.09 20.2586 11.0718 19.2026C11.09 18.1284 10.125 17.3637 8.57747 17.3637H7.35761V15.3427H8.57747C9.87015 15.3427 10.7805 14.6326 10.7805 13.5949C10.7805 12.5935 10.0158 11.9016 8.85057 11.9016C7.68533 11.9016 6.72037 12.5571 6.68395 13.5584H4.06217C4.09858 11.2826 6.15595 9.7168 8.85057 9.7168C11.5998 9.7168 13.4387 11.3372 13.4205 13.431C13.4387 14.9057 12.4009 15.9617 10.9261 16.2166V16.3259C12.8561 16.5626 13.9303 17.746 13.9121 19.3846C13.9303 21.6423 11.7819 23.2627 8.81415 23.2627Z" fill="white"/>
</svg>
