<svg width="56" height="39" viewBox="0 0 56 39" fill="none" xmlns="http://www.w3.org/2000/svg">
<path d="M40 0C48.8366 0 56 7.16344 56 16C56 24.8366 48.8366 32 40 32H33.6055L29.0898 37.917C28.2894 38.9656 26.7106 38.9656 25.9102 37.917L21.3945 32H16C7.16344 32 0 24.8366 0 16C0 7.16344 7.16344 3.86555e-07 16 0H40Z" fill="url(#paint0_linear_6446_19676)"/>
<path d="M22.1367 30.5L27.1025 37.0068L27.1855 37.0928C27.3979 37.265 27.7223 37.2362 27.8975 37.0068L32.8633 30.5H40V32H33.6055L29.0898 37.917C28.2894 38.9656 26.7106 38.9656 25.9102 37.917L21.3945 32H16V30.5H22.1367ZM54.5 16C54.5 7.99187 48.0081 1.5 40 1.5H16C7.99187 1.5 1.5 7.99187 1.5 16C1.5 24.0081 7.99187 30.5 16 30.5V32C7.16344 32 0 24.8366 0 16C0 7.16344 7.16344 3.86555e-07 16 0H40C48.8366 0 56 7.16344 56 16C56 24.8366 48.8366 32 40 32V30.5C48.0081 30.5 54.5 24.0081 54.5 16Z" fill="white"/>
<path d="M41.5345 10.991C41.4435 13.227 41.3915 15.476 41.3135 17.725C41.3005 18.206 40.9105 18.453 40.5205 18.453C40.1435 18.453 39.7665 18.206 39.7535 17.725C39.6885 15.476 39.6105 13.227 39.5585 10.991C39.5585 10.484 40.0005 10.25 40.5335 10.25C41.0535 10.25 41.5345 10.484 41.5345 10.991ZM39.5195 20.741C39.5195 20.208 39.9485 19.753 40.5205 19.753C41.0795 19.753 41.5345 20.208 41.5345 20.741C41.5345 21.3 41.0795 21.768 40.5205 21.768C39.9485 21.768 39.5195 21.3 39.5195 20.741Z" fill="white"/>
<path d="M28.7193 10.6011H34.9463C35.8433 10.6011 36.1033 10.8741 36.1033 11.7841V12.5901C36.1033 13.6951 35.9473 14.9301 35.6093 15.8271H37.6243C38.0143 15.8271 38.1963 16.1651 38.1963 16.5941C38.1963 17.0231 38.0143 17.3611 37.6243 17.3611H35.0373V21.4821C35.0373 21.9891 34.6603 22.2101 34.1533 22.2101C33.6593 22.2101 33.2953 21.9891 33.2953 21.4821V17.3611H31.1113V21.4821C31.1113 21.9891 30.7473 22.2101 30.2533 22.2101C29.7333 22.2101 29.3823 21.9891 29.3823 21.4821V17.3611H26.7563C26.4053 17.3611 26.1973 17.0231 26.1973 16.5941C26.1973 16.1651 26.4053 15.8271 26.7563 15.8271H33.9193C34.1793 15.0471 34.3613 14.0071 34.3613 12.9671V12.4341C34.3613 12.1481 34.3093 12.0831 34.0233 12.0831H28.7193C28.3033 12.0831 28.0693 11.7711 28.0693 11.3551C28.0693 10.9001 28.3033 10.6011 28.7193 10.6011Z" fill="white"/>
<path d="M17.1007 21.2739V18.5569C17.1007 18.1409 17.5427 17.8939 18.0237 17.8939C18.5047 17.8939 18.9467 18.1409 18.9467 18.5569V20.6629C18.9467 20.9359 18.9857 20.9749 19.2327 20.9749H24.3157C24.7447 20.9749 24.9007 21.2869 24.9007 21.7159C24.9007 22.1319 24.7447 22.4699 24.3157 22.4699H18.5047C17.5947 22.4699 17.1007 22.2879 17.1007 21.2739ZM17.8287 10.4319C18.3357 10.4319 18.7387 10.6399 18.7387 11.0559V11.8099C18.7387 13.6819 19.5057 15.0079 21.0657 15.6839C21.4947 15.8659 21.6247 16.2819 21.4557 16.7109C21.2737 17.1139 20.9227 17.3219 20.4287 17.1269C19.2587 16.6979 18.3747 15.7879 17.8807 14.6569C17.4387 15.8659 16.4637 16.9579 15.2417 17.4389C14.7347 17.6209 14.3837 17.4129 14.1887 17.0489C14.0197 16.6849 14.0717 16.2429 14.5137 16.0349C16.1907 15.1899 16.9317 13.7339 16.9317 11.8879V11.0559C16.9317 10.6399 17.3607 10.4319 17.8287 10.4319ZM22.8077 18.5569V10.6139C22.8077 10.1979 23.2107 9.96387 23.6787 9.96387C24.1597 9.96387 24.5367 10.1979 24.5367 10.6139V18.5569C24.5367 19.0639 24.1857 19.2719 23.6787 19.2719C23.1327 19.2719 22.8077 19.0379 22.8077 18.5569Z" fill="white"/>
<defs>
<linearGradient id="paint0_linear_6446_19676" x1="0" y1="19.3517" x2="56" y2="19.3517" gradientUnits="userSpaceOnUse">
<stop stop-color="#F07C00"/>
<stop offset="1" stop-color="#E14B00"/>
</linearGradient>
</defs>
</svg>
